HIERARCHY
ROOT Hips
{
	OFFSET 0.000000 0.000000 0.000000 
	CHANNELS 6 Xposition Yposition Zposition Yrotation Zrotation Xrotation 
	JOINT Lumbar
	{
		OFFSET 0.000000 0.000000 0.000000 
		CHANNELS 3 Zrotation Xrotation Yrotation
		JOINT Neck
		{
			OFFSET 0.000000 0.445665 0.000000 
			CHANNELS 3 Zrotation Xrotation Yrotation
			End Site
			{
				OFFSET 0.000000 0.227535 0.000000 
			}
		}
		JOINT RightShoulder
		{
			OFFSET 0.019635 0.377685 0.194865 
			CHANNELS 3 Zrotation Xrotation Yrotation
			JOINT RightElbow
			{
				OFFSET 0.000000 -0.243375 0.000000 
				CHANNELS 2 Zrotation Yrotation
				JOINT RightWrist
				{
					OFFSET 0.000000 -0.264825 0.000000 
					CHANNELS 2 Zrotation Xrotation
					End Site
					{
						OFFSET 0.006600 -0.176220 0.000990 
					}
				}
			}
		}
		JOINT LeftShoulder
		{
			OFFSET 0.019635 0.377685 -0.194865 
			CHANNELS 3 Zrotation Xrotation Yrotation
			JOINT LeftElbow
			{
				OFFSET 0.000000 -0.243375 0.000000 
				CHANNELS 2 Zrotation Yrotation
				JOINT LeftWrist
				{
					OFFSET 0.000000 -0.264825 0.000000 
					CHANNELS 2 Zrotation Xrotation
					End Site
					{
						OFFSET 0.006600 -0.176220 -0.000990 
					}
				}
			}
		}
	}
	JOINT RightHip
	{
		OFFSET 0.052140 -0.069960 0.075570 
		CHANNELS 3 Zrotation Xrotation Yrotation
		JOINT RightKnee
		{
			OFFSET 0.000000 -0.402270 0.000000 
			CHANNELS 1 Zrotation
			JOINT RightAnkle
			{
				OFFSET 0.000000 -0.404085 0.000000 
				CHANNELS 3 Zrotation Xrotation Yrotation
				End Site
				{
					OFFSET 0.204105 -0.089430 0.008415 
				}
			}
		}
	}
	JOINT LeftHip
	{
		OFFSET 0.052140 -0.069960 -0.075570 
		CHANNELS 3 Zrotation Xrotation Yrotation
		JOINT LeftKnee
		{
			OFFSET 0.000000 -0.402270 0.000000 
			CHANNELS 1 Zrotation
			JOINT LeftAnkle
			{
				OFFSET 0.000000 -0.404085 0.000000 
				CHANNELS 3 Zrotation Xrotation Yrotation
				End Site
				{
					OFFSET 0.204105 -0.089430 -0.008415 
				}
			}
		}
	}
}
MOTION
Frames: 22
Frame Time: 0.02
0.21216 0.04906 -0.1732 43.92163 -30.32545 -8.60671 48.22982 1.18629 -8.32632 7.71299 -1.42726 -2.11994 31.00829 -14.81084 23.87733 92.23121 93.82889 17.41974 -0.60332 42.81355 22.97581 -16.02043 77.69129 -92.53683 11.00625 -0.07222 36.87443 -0.23636 -9.2874 -15.95254 -6.67783 -0.91569 -2.70248 43.21767 2.88138 9.39177 -23.27767 -6.70856 1.25506 2.86153
0.21186 0.04893 -0.17322 43.8755 -30.63226 -8.69494 48.33121 1.14432 -7.91722 7.52385 -0.66327 -2.11994 31.32761 -14.72855 20.51523 93.58119 92.9415 15.69702 -0.49342 38.77447 21.78456 -12.74126 82.54549 -91.99238 9.98069 -0.2249 37.23601 -0.19898 -9.17645 -15.97399 -6.68962 -0.9017 -2.69644 43.53299 3.13166 10.48246 -23.29353 -6.77157 1.14262 2.80528
0.21152 0.04881 -0.17326 43.92731 -30.94037 -8.77568 48.39691 1.12237 -7.53209 7.32263 -0.05562 -2.11994 31.12087 -14.83113 16.90443 95.67827 91.16867 12.45342 -0.35285 34.9061 20.40586 -9.76538 86.86238 -90.66333 7.98495 -0.40061 37.57138 -0.16493 -8.9773 -15.97764 -6.6985 -0.90308 -2.69744 43.82355 3.3971 11.72596 -23.30185 -6.85012 1.00945 2.73839
0.2112 0.04868 -0.17329 43.94114 -31.24431 -8.86005 48.47437 1.09093 -7.14309 7.12759 0.61238 -2.11994 31.13531 -14.86391 13.42011 97.40627 89.79641 9.92558 -0.23265 30.99206 19.13474 -6.68282 91.36574 -89.6406 6.40977 -0.56182 37.91264 -0.12984 -8.83132 -15.98882 -6.70851 -0.89726 -2.69508 44.12405 3.64356 12.83554 -23.31358 -6.91807 0.8914 2.67932
0.21087 0.04856 -0.17333 43.92715 -31.5652 -8.94376 48.57081 1.06199 -6.72565 6.93173 1.32592 -2.11994 31.2236 -14.83276 9.86385 99.27743 88.43181 7.29025 -0.08729 26.92131 17.75838 -3.45953 96.13462 -88.78042 4.89695 -0.74858 38.28107 -0.0931 -8.63324 -16.00223 -6.71947 -0.8919 -2.69317 44.43229 3.94165 14.21953 -23.32549 -7.00091 0.74892 2.60751
0.21054 0.04843 -0.17336 43.9945 -31.85027 -9.02688 48.61931 1.03236 -6.3729 6.73435 1.90646 -2.11994 31.03461 -14.98113 6.40943 101.01423 86.84555 4.52552 0.01433 23.23221 16.56399 -0.60793 100.20816 -87.42051 3.03937 -0.88497 38.58595 -0.06049 -8.52149 -16.00686 -6.72771 -0.88942 -2.69209 44.71739 4.13628 15.07119 -23.33518 -7.05668 0.65217 2.55955
0.21021 0.0483 -0.17335 44.2622 -32.03764 -9.1112 48.54257 0.99483 -6.19001 6.53017 2.16839 -2.11994 30.19782 -15.5676 3.23341 102.28224 84.8022 1.69479 -0.01866 20.47903 15.87774 1.32772 102.57153 -84.7893 0.38544 -0.86995 38.72261 -0.03809 -8.67013 -15.99099 -6.72907 -0.89103 -2.69138 44.94829 4.03255 14.36842 -23.34078 -7.03101 0.69127 2.58245
0.20987 0.04817 -0.17333 44.60844 -32.18853 -9.19494 48.41913 0.95604 -6.07161 6.32561 2.29995 -2.11994 29.10209 -16.33049 0.18226 103.37479 82.57368 -1.19936 -0.09448 18.12077 15.38885 2.89195 104.23808 -81.69899 -2.56513 -0.80434 38.79595 -0.01976 -8.90808 -15.96702 -6.7278 -0.89509 -2.69131 45.15593 3.82565 13.13266 -23.34437 -6.97808 0.77638 2.6293
0.20954 0.04805 -0.17331 44.919 -32.3547 -9.27835 48.31796 0.91835 -5.92554 6.12437 2.48457 -2.11994 28.13234 -17.02184 -2.88376 104.48661 80.47394 -4.01171 -0.14748 15.63327 14.83793 4.60199 106.1687 -78.88578 -5.32313 -0.7637 38.89735 0.00029 -9.10456 -15.94714 -6.72775 -0.89815 -2.69107 45.37145 3.67167 12.1707 -23.34874 -6.93951 0.83762 2.66365
0.20918 0.0479 -0.17331 45.2331 -32.52585 -9.36419 48.21081 0.87894 -5.77394 5.9091 2.69013 -2.11994 27.10985 -17.68551 -6.1379 105.86781 78.16899 -7.09972 -0.21723 12.93775 14.16666 6.39964 108.29828 -75.77542 -8.35627 -0.71165 39.00038 0.02088 -9.30216 -15.92489 -6.72746 -0.90124 -2.69055 45.59708 3.49276 11.08028 -23.35341 -6.89316 0.91065 2.70447
0.20888 0.04779 -0.17327 45.557 -32.67864 -9.44471 48.10591 0.84283 -5.6482 5.72357 2.82278 -2.11994 26.14173 -18.44338 -8.96417 106.65175 76.24143 -9.6101 -0.25811 10.76914 13.79151 7.92921 109.86075 -73.16019 -10.87764 -0.67607 39.08592 0.03929 -9.51924 -15.90593 -6.72711 -0.90466 -2.69068 45.79699 3.34107 10.12955 -23.35709 -6.85634 0.9703 2.73762
0.2087 0.04777 -0.17308 45.88994 -32.78353 -9.51259 48.01518 0.81364 -5.58397 5.61621 2.79007 -2.11994 25.39747 -19.44122 -10.66404 105.69289 75.56264 -10.48995 -0.24987 9.94185 14.22005 8.82145 109.97794 -72.2546 -11.87367 -0.65322 39.13329 0.05402 -9.77295 -15.89782 -6.72721 -0.90834 -2.69248 45.92657 3.28976 9.68732 -23.35826 -6.85233 0.98214 2.7438
0.20857 0.04778 -0.17284 46.22937 -32.87219 -9.57488 47.92913 0.78817 -5.54251 5.53948 2.68864 -2.11994 24.71811 -20.52149 -11.9318 104.15986 75.24903 -10.78137 -0.20511 9.63326 14.93406 9.45599 109.5597 -71.83069 -12.34458 -0.65609 39.16619 0.06654 -10.04265 -15.89342 -6.72735 -0.91222 -2.6949 46.03196 3.2693 9.40424 -23.35857 -6.85879 0.979 2.74148
0.20842 0.04777 -0.17263 46.56451 -32.97246 -9.63846 47.84341 0.76259 -5.48643 5.45161 2.61662 -2.11994 24.00419 -21.54938 -13.37989 102.97646 74.66092 -11.3489 -0.14836 9.09796 15.49622 10.20209 109.42281 -71.0313 -13.07984 -0.67775 39.20959 0.07912 -10.30247 -15.88763 -6.72753 -0.91595 -2.69699 46.15201 3.23474 9.05312 -23.35952 -6.86054 0.98251 2.74299
0.20824 0.04777 -0.17238 46.90792 -33.05416 -9.70711 47.74572 0.73038 -5.44989 5.35251 2.54709 -2.11994 23.30005 -22.65091 -14.89126 101.4164 74.50476 -11.8871 -0.20751 8.53975 16.15969 10.9584 109.10368 -70.85001 -13.72699 -0.57257 39.23493 0.09524 -10.57671 -15.88042 -6.72742 -0.91998 -2.69926 46.25639 3.19713 8.6673 -23.3594 -6.86126 0.98812 2.74537
0.20814 0.04777 -0.17221 47.23486 -33.17046 -9.76411 47.67462 0.71277 -5.37817 5.28345 2.45842 -2.11994 22.5972 -23.61079 -16.17017 100.50241 73.56231 -12.3404 -0.02389 8.14568 16.67592 11.6372 109.04248 -69.5349 -14.41711 -0.73383 39.29435 0.10392 -10.82315 -15.87698 -6.72789 -0.92344 -2.70133 46.38715 3.17429 8.39609 -23.36126 -6.86681 0.98542 2.74373
0.20825 0.04779 -0.17225 47.51155 -33.39203 -9.7882 47.67667 0.73538 -5.19522 5.29496 2.32903 -2.11994 21.85987 -24.20558 -16.90905 101.5471 70.15857 -12.74433 0.88905 8.089 16.72813 12.16564 109.85937 -64.70218 -15.4491 -1.66184 39.45915 0.08934 -10.99129 -15.88436 -6.73065 -0.92484 -2.70245 46.60338 3.18775 8.42644 -23.36939 -6.88468 0.96102 2.73194
0.20844 0.04781 -0.17238 47.77136 -33.6478 -9.80114 47.7054 0.77236 -4.97729 5.33445 2.18427 -2.11994 21.12695 -24.64559 -17.42991 103.25422 65.99252 -13.0745 2.03275 8.17501 16.61931 12.62616 110.95105 -58.77284 -16.52055 -2.84902 39.65722 0.06805 -11.12956 -15.89508 -6.73384 -0.92576 -2.70341 46.84541 3.21518 8.56562 -23.37937 -6.90689 0.92889 2.71645
0.2086 0.04783 -0.17247 48.04092 -33.88474 -9.8206 47.72156 0.80225 -4.78067 5.35807 2.05031 -2.11994 20.40814 -25.12498 -18.05414 104.63901 62.30419 -13.41159 3.02629 8.18713 16.57474 13.12007 111.8981 -53.51356 -17.51349 -3.89507 39.83577 0.05196 -11.28008 -15.90362 -6.73648 -0.92708 -2.70457 47.07189 3.23445 8.64088 -23.38817 -6.9262 0.90177 2.70334
0.20874 0.04785 -0.17253 48.3031 -34.13626 -9.83379 47.73969 0.83475 -4.56224 5.39706 1.89781 -2.11994 19.62408 -25.7373 -18.64641 106.10177 58.06152 -13.84244 4.21161 8.258 16.5768 13.59656 112.9108 -47.5112 -18.75476 -5.04619 40.03393 0.02651 -11.4387 -15.91561 -6.74082 -0.92745 -2.70514 47.31544 3.2615 8.77913 -23.39864 -6.94974 0.86822 2.68721
0.20893 0.04787 -0.17269 48.57511 -34.3641 -9.85736 47.76004 0.86502 -4.38036 5.40908 1.78112 -2.11994 18.97529 -26.03585 -19.25748 107.5566 54.80363 -14.06572 5.05266 8.23079 16.44119 14.09353 113.85732 -42.83344 -19.48154 -6.03263 40.19735 0.01923 -11.57075 -15.92046 -6.74147 -0.92991 -2.70697 47.52765 3.27639 8.81414 -23.40576 -6.96543 0.84591 2.67634
0.20925 0.04792 -0.1731 48.89055 -34.53267 -9.91337 47.77999 0.88725 -4.31005 5.35008 1.76789 -2.11994 18.70626 -25.49729 -19.98893 108.92209 54.30843 -13.75828 4.8794 7.91879 15.95079 14.69221 114.57275 -41.69417 -18.90002 -6.56314 40.27449 0.06157 -11.65764 -15.91102 -6.73398 -0.93635 -2.71169 47.66659 3.24421 8.50109 -23.40601 -6.9578 0.86102 2.68314
